<svg xmlns="http://www.w3.org/2000/svg" xmlns:xlink="http://www.w3.org/1999/xlink" viewBox="0 0 1200 1200">
<metadata><rdf:RDF xmlns:rdf="http://www.w3.org/1999/02/22-rdf-syntax-ns#"><rdf:Description rdf:about="" xmlns:dc="http://purl.org/dc/elements/1.1/" xmlns:Iptc4xmpCore="http://iptc.org/std/Iptc4xmpCore/1.0/xmlns/"><dc:creator><rdf:Seq><rdf:li>Gregory.K</rdf:li></rdf:Seq></dc:creator><dc:rights><rdf:Alt><rdf:li xml:lang="x-default">Mozilla Public License Version 2.0</rdf:li></rdf:Alt></dc:rights><Iptc4xmpCore:CreatorContactInfo><rdf:Description><Iptc4xmpCore:CiUrlWork>https://github.com/Gregory-K</Iptc4xmpCore:CiUrlWork></rdf:Description></Iptc4xmpCore:CreatorContactInfo></rdf:Description></rdf:RDF></metadata>
<defs><linearGradient id="a" x1="600" y1="59.35" x2="600" y2="1136.89" gradientUnits="userSpaceOnUse"><stop offset="0" stop-color="#f0f"/><stop offset="1" stop-color="#bf00ff"/></linearGradient></defs><polyline points="71.49 59.35 71.49 873.5 598.9 1136.89 1128.51 886.43 1128.51 59.35" style="stroke:#000;stroke-miterlimit:10;fill:url(#a)"/><path d="M600,423.58,809.44,182h141.1V833.59H788.21V426.85l-176,204.3H587.79l-176-204.3V833.59H249.46V182H390.4Z"/><path d="M1095,95V862.09L600,1096.48,105,862.09V95h990m67.91-80H37.09A12.08,12.08,0,0,0,25,27V881.2a49.94,49.94,0,0,0,28.68,45.1L600,1185l546.32-258.7A49.94,49.94,0,0,0,1175,881.2V27a12.08,12.08,0,0,0-12.09-12Z"/><polyline points="327.67 967.53 599.67 1185 872.54 967.43"/>
</svg>
