<svg xmlns="http://www.w3.org/2000/svg" viewBox="0 0 1200 1200">
<metadata><rdf:RDF xmlns:rdf="http://www.w3.org/1999/02/22-rdf-syntax-ns#"><rdf:Description rdf:about="" xmlns:dc="http://purl.org/dc/elements/1.1/" xmlns:Iptc4xmpCore="http://iptc.org/std/Iptc4xmpCore/1.0/xmlns/"><dc:creator><rdf:Seq><rdf:li>Gregory.K</rdf:li></rdf:Seq></dc:creator><dc:rights><rdf:Alt><rdf:li xml:lang="x-default">Mozilla Public License Version 2.0</rdf:li></rdf:Alt></dc:rights><Iptc4xmpCore:CreatorContactInfo><rdf:Description><Iptc4xmpCore:CiUrlWork>https://github.com/Gregory-K</Iptc4xmpCore:CiUrlWork></rdf:Description></Iptc4xmpCore:CreatorContactInfo></rdf:Description></rdf:RDF></metadata>
<path d="M600,423.58,809.44,182h141.1V833.59H788.21V426.85l-176,204.3H587.79l-176-204.3V833.59H249.46V182H390.4Z" style="fill:#fff"/><path d="M1095,95V862.09L600,1096.48,105,862.09V95h990m67.91-80H37.09A12.08,12.08,0,0,0,25,27V881.2a49.94,49.94,0,0,0,28.68,45.1L600,1185l546.32-258.7A49.94,49.94,0,0,0,1175,881.2V27a12.08,12.08,0,0,0-12.09-12Z" style="fill:#fff"/><polyline points="327.46 967.43 599.67 1185 872.59 967.43" style="fill:#fff"/>
</svg>
